<svg xmlns="http://www.w3.org/2000/svg" preserveAspectRatio="xMidYMid" width="30.004473" height="33.583282" viewBox="0 0 30.004473 33.583282"><defs><style>.cls-2 { fill: #3f72da; }</style></defs><path d="m 21.272,19.136 c -0.916,1.569 -6.306,3.593 -6.306,3.593 0,0 -0.35,-5.304 0.565,-6.873 L 23.817,1.651 c 0.915,-1.569 2.942,-2.106 4.527,-1.2 1.585,0.905 2.128,2.912 1.213,4.481 z M 27.515,1.871 c -0.792,-0.453 -1.806,-0.184 -2.263,0.6 l 0.001,10e-4 -8.285,14.205 -0.002,-0.001 c -0.457,0.785 -1.002,4.077 -1.002,4.077 0,0 3.415,-1.652 3.872,-2.437 L 19.835,18.315 19.844,18.3 28.111,4.126 28.12,4.111 28.122,4.112 C 28.58,3.327 28.308,2.324 27.515,1.871 z m -25.522,29.747 24.948,0 0,-14.816 1.996,0 0,14.816 c 0,0.966 -1.02,1.976 -1.996,1.976 l -24.948,0 c -0.976,0 -1.996,-1.01 -1.996,-1.976 l 0,-24.693 c 0,-0.967 1.02,-1.976 1.996,-1.976 l 13.971,0 0,1.976 -13.971,0 z" id="path-1" class="cls-2" fill-rule="evenodd"/></svg>
